<?xml version="1.0" encoding="utf-8"?><!-- Uploaded to: SVG Repo, www.svgrepo.com, Generator: SVG Repo Mixer Tools -->
<svg width="800px" height="800px" viewBox="0 0 64 64" xmlns="http://www.w3.org/2000/svg" xmlns:xlink="http://www.w3.org/1999/xlink" aria-hidden="true" role="img" class="iconify iconify--emojione" preserveAspectRatio="xMidYMid meet"><path d="M47.4 47.4l7.5-2l8.8 8.8c1-4.2-.1-8.9-3.4-12.2c-3.3-3.3-7.9-4.4-12.2-3.4L25.4 16c1-4.2-.1-8.9-3.4-12.2C18.7.5 14.1-.6 9.8.4l8.8 8.8l-2 7.5l-7.5 2L.4 9.8c-1 4.2.1 8.9 3.4 12.2c3.3 3.3 7.9 4.4 12.2 3.4L38.6 48c-1 4.2.1 8.9 3.4 12.2c3.3 3.3 7.9 4.4 12.2 3.4l-8.8-8.8l2-7.4" fill="#94989b"></path></svg>